HIERARCHY
ROOT Hips
{
    OFFSET 0.000000 0.000000 0.000000
    CHANNELS 6 Xposition Yposition Zposition Zrotation Xrotation Yrotation
    JOINT Spine
    {
        OFFSET -0.000000 7.856138 0.000000
        CHANNELS 3 Zrotation Xrotation Yrotation
        JOINT Spine1
        {
            OFFSET -0.000000 20.830866 0.000000
            CHANNELS 3 Zrotation Xrotation Yrotation
            JOINT Neck
            {
                OFFSET -0.000000 20.745317 1.885938
                CHANNELS 3 Zrotation Xrotation Yrotation
                JOINT Head
                {
                    OFFSET -0.000000 13.412918 -1.916131
                    CHANNELS 3 Zrotation Xrotation Yrotation
                    End Site
                    {
                        OFFSET -0.000000 23.951641 0.000000
                    }
                }
            }
            JOINT LeftShoulder
            {
                OFFSET 3.826675 19.078362 -0.073511
                CHANNELS 3 Zrotation Xrotation Yrotation
                JOINT LeftArm
                {
                    OFFSET 10.442133 0.000000 0.000000
                    CHANNELS 3 Zrotation Xrotation Yrotation
                    JOINT LeftForeArm
                    {
                        OFFSET 37.051945 0.000000 0.000000
                        CHANNELS 3 Zrotation Xrotation Yrotation
                        JOINT LeftHand
                        {
                            OFFSET 24.394852 0.000000 0.000000
                            CHANNELS 3 Zrotation Xrotation Yrotation
                            End Site
                            {
                                OFFSET 14.370985 0.000000 0.000000
                            }
                        }
                    }
                }
            }
            JOINT RightShoulder
            {
                OFFSET -3.827599 19.078362 -0.073511
                CHANNELS 3 Zrotation Xrotation Yrotation
                JOINT RightArm
                {
                    OFFSET -10.442133 0.000000 0.000000
                    CHANNELS 3 Zrotation Xrotation Yrotation
                    JOINT RightForeArm
                    {
                        OFFSET -37.051945 0.000000 0.000000
                        CHANNELS 3 Zrotation Xrotation Yrotation
                        JOINT RightHand
                        {
                            OFFSET -24.394852 0.000000 0.000000
                            CHANNELS 3 Zrotation Xrotation Yrotation
                            End Site
                            {
                                OFFSET -14.370985 0.000000 0.000000
                            }
                        }
                    }
                }
            }
        }
    }
    JOINT LeftUpLeg
    {
        OFFSET 9.580656 0.000000 0.000000
        CHANNELS 3 Zrotation Xrotation Yrotation
        JOINT LeftLeg
        {
            OFFSET -0.000000 -43.769192 0.000000
            CHANNELS 3 Zrotation Xrotation Yrotation
            JOINT LeftFoot
            {
                OFFSET -0.000000 -42.531967 0.000000
                CHANNELS 3 Zrotation Xrotation Yrotation
                JOINT LeftToeBase
                {
                    OFFSET -0.000000 -6.227426 14.370985
                    CHANNELS 3 Zrotation Xrotation Yrotation
                    End Site
                    {
                        OFFSET -0.000000 0.000000 3.832262
                    }
                }
            }
        }
    }
    JOINT RightUpLeg
    {
        OFFSET -9.580656 0.000000 0.000000
        CHANNELS 3 Zrotation Xrotation Yrotation
        JOINT RightLeg
        {
            OFFSET -0.000000 -43.769192 0.000000
            CHANNELS 3 Zrotation Xrotation Yrotation
            JOINT RightFoot
            {
                OFFSET -0.000000 -42.531967 0.000000
                CHANNELS 3 Zrotation Xrotation Yrotation
                JOINT RightToeBase
                {
                    OFFSET -0.000000 -6.227426 14.370985
                    CHANNELS 3 Zrotation Xrotation Yrotation
                    End Site
                    {
                        OFFSET -0.000000 0.000000 3.832262
                    }
                }
            }
        }
    }
}
MOTION
Frames:    7
Frame Time:    0.008333
22.216290    92.805840    29.241312    -1.155383    -1.527232    88.127769    -1.237559    -7.701695    0.830530    5.075080    5.901175    0.652087    -1.032188    0.622479    -5.284246    6.028211    5.958734    -4.805063    11.889855    -0.911440    7.889062    -13.557604    3.771961    -9.062003    5.772161    -5.791693    -1.821743    6.841782    -5.796391    -1.615530    -18.550245    2.319383    -3.740287    21.931122    2.798414    1.786305    -4.465241    -3.807735    4.178574    -12.814965    -3.272981    -3.318689    4.707740    5.599665    -1.055607    -3.962086    -1.162764    -2.445340    6.832918    -7.041218    18.776812    0.000000    0.000000    0.000000    -0.884145    1.504373    -0.372796    2.997618    3.582960    -1.963517    -2.248185    -7.898111    -7.257579    0.000000    0.000000    0.000000    
22.229845    92.811600    29.278549    -1.172875    -1.516908    88.029297    -1.301301    -7.628220    0.840682    5.112524    5.775363    0.669336    -1.200147    0.587772    -5.325380    6.373047    5.434073    -4.762819    11.866658    -0.936156    7.910840    -13.571845    3.677553    -9.003016    5.932985    -5.867293    -1.769364    5.957916    -5.849401    -1.416518    -18.552660    2.281358    -3.668895    21.888048    2.622250    1.862748    -4.480588    -4.002706    4.183308    -12.956787    -3.442218    -3.503337    4.711791    5.634885    -1.068371    -3.960204    -1.210580    -2.356351    6.763661    -7.021361    18.794472    0.000000    0.000000    0.000000    -0.871377    1.488107    -0.334448    2.999510    3.569555    -1.984656    -2.274082    -7.879631    -7.211144    0.000000    0.000000    0.000000    
22.239265    92.808380    29.291471    -1.183823    -1.527192    87.954742    -1.267096    -7.603051    0.849342    5.069965    5.727853    0.679761    -1.278025    0.602553    -5.327080    6.553726    5.136915    -4.719263    11.861328    -0.950244    7.946915    -13.562187    3.673783    -8.958031    5.994093    -5.920281    -1.770519    5.923506    -5.896895    -1.337085    -18.554312    2.256360    -3.608706    21.877266    2.508511    1.897076    -4.527251    -3.995872    4.162488    -12.532384    -3.473953    -3.263357    4.721739    5.663881    -1.040567    -3.964841    -1.241172    -2.271856    6.766399    -7.037580    18.778284    0.000000    0.000000    0.000000    -0.855245    1.481208    -0.263638    2.995498    3.558982    -1.986935    -2.266048    -7.884336    -7.204422    0.000000    0.000000    0.000000    
22.243654    92.807846    29.307323    -1.186959    -1.530032    87.907997    -1.295154    -7.581283    0.866454    5.090850    5.713627    0.698079    -1.309640    0.583130    -5.325614    6.680508    4.849555    -4.683749    11.875167    -0.969095    7.956522    -13.589804    3.609809    -8.954926    6.074177    -5.959489    -1.747501    5.821511    -5.932804    -1.295794    -18.555285    2.217842    -3.615248    21.846342    2.412149    1.937409    -4.531616    -4.090801    4.154145    -12.637998    -3.562444    -3.296104    4.729277    5.680295    -1.017146    -3.962196    -1.255789    -2.216765    6.748409    -7.038230    18.741255    0.000000    0.000000    0.000000    -0.841934    1.474622    -0.267136    2.997832    3.559325    -1.944016    -2.269173    -7.888155    -7.218431    0.000000    0.000000    0.000000    
22.246122    92.806580    29.319149    -1.187783    -1.530099    87.854874    -1.298592    -7.565782    0.862694    5.106802    5.719618    0.693355    -1.337546    0.562639    -5.290230    6.710822    4.560011    -4.622630    11.837429    -1.003997    8.002277    -13.575655    3.602491    -8.913958    6.138793    -6.056756    -1.762903    5.801477    -6.025317    -1.241782    -18.614578    2.186536    -3.584445    21.851191    2.273863    2.007630    -4.523754    -4.166882    4.145037    -12.807285    -3.626951    -3.361638    4.737226    5.695755    -0.988944    -3.973157    -1.264523    -2.206524    6.736986    -7.047242    18.756720    0.000000    0.000000    0.000000    -0.831600    1.462061    -0.242458    2.987461    3.578435    -1.946187    -2.291530    -7.900161    -7.200356    0.000000    0.000000    0.000000    
22.248211    92.804955    29.328987    -1.191335    -1.527321    87.804062    -1.324317    -7.547617    0.884742    5.131315    5.714855    0.715848    -1.328212    0.580952    -5.259447    6.755179    4.226304    -4.567879    11.833291    -1.016138    8.008544    -13.587606    3.574700    -8.909910    6.193227    -6.188826    -1.756095    5.853191    -6.153946    -1.172003    -18.637188    2.137741    -3.596475    21.834280    2.203870    2.039728    -4.617532    -4.187859    4.141894    -12.536892    -3.653179    -3.357111    4.732362    5.705629    -0.952263    -3.965503    -1.269202    -2.205302    6.748011    -7.046010    18.772381    0.000000    0.000000    0.000000    -0.826062    1.451243    -0.238858    2.983433    3.579862    -1.943253    -2.280859    -7.913590    -7.186368    0.000000    0.000000    0.000000    
22.250187    92.803200    29.338196    -1.191553    -1.527039    87.757133    -1.314133    -7.542520    0.885575    5.106852    5.740084    0.715987    -1.322674    0.566055    -5.201670    6.805211    3.950619    -4.486634    11.839726    -1.037812    8.053315    -13.595571    3.566207    -8.891121    6.242688    -6.341547    -1.766299    6.010508    -6.302695    -1.090207    -18.663811    2.092022    -3.550926    21.840927    2.115896    2.071004    -4.613084    -4.258520    4.156461    -12.786140    -3.702967    -3.474398    4.735219    5.711902    -0.918916    -3.961403    -1.277538    -2.232836    6.745147    -7.040891    18.795872    0.000000    0.000000    0.000000    -0.819453    1.441374    -0.240149    2.979091    3.592750    -1.924291    -2.286815    -7.932826    -7.170259    0.000000    0.000000    0.000000    
